# xmcd
#
# Track frame offsets:
#	150
#	17735
#	32687
#	45187
#	59692
#	73147
#	89732
#	103207
#	120670
#	138780
#	161300
#	174820
#	194060
#
# Disc length: 2838 seconds
#
# Revision: 1
# Processed by: cddbd v1.5.1PL0 Copyright (c) Steve Scherf et al.
# Submitted via: audiograbber 1.83.01
#
DISCID=b00b140d
DTITLE=Vários - Cowboy Do Asfalto
DYEAR=2004
DGENRE=Sertanejo
TTITLE0=Chitãozinho and Xororó - Cowboy Do Asfalto
TTITLE1=Chrystian and Ralf - Telefone Mudo
TTITLE2=Teodoro and Sampaio - Cantaram A Minha Vizinha (Ao Vivo)
TTITLE3=Roberta Miranda - De Igual Pra Igual (Ao Vivo)
TTITLE4=Marlon and Maicon - Eu Tô Na Dela
TTITLE5=Rionegro and Solimões - Clima De Rodeio
TTITLE6=Chitãozinho and Xororó Com João Paulo and Daniel - Saudade De Minha Terra
TTITLE7=Sérgio and Tchelo - Te Busquei Nas Avenidas
TTITLE8=Cacá Moraes - Dia De Rodeio
TTITLE9=Cezar and Paulinho - O Homem De Nazareth
TTITLE10=Chitãozinho and Xororó Com Zezé Di Camargo and Luciano - Pombinha Branca
TTITLE11=Fábio and Fernando - Chora No Meu Colo
TTITLE12=Alvinho and Da Mata - Tô Fazendo Falta
EXTD=
EXTT0=
EXTT1=
EXTT2=
EXTT3=
EXTT4=
EXTT5=
EXTT6=
EXTT7=
EXTT8=
EXTT9=
EXTT10=
EXTT11=
EXTT12=
PLAYORDER=
